<?xml version="1.0" standalone="no"?>
<!DOCTYPE svg PUBLIC "-//W3C//DTD SVG 20010904//EN"
 "http://www.w3.org/TR/2001/REC-SVG-20010904/DTD/svg10.dtd">
<svg version="1.0" xmlns="http://www.w3.org/2000/svg"
 width="320.000000pt" height="320.000000pt" viewBox="0 0 320.000000 320.000000"
 preserveAspectRatio="xMidYMid meet">

<g transform="translate(0.000000,320.000000) scale(0.100000,-0.100000)"
fill="#000000" stroke="none">
<path d="M1750 2403 c-224 -18 -449 -107 -597 -238 -155 -137 -272 -393 -290
-635 -9 -118 -23 -63 -22 83 1 146 -20 176 -128 180 -34 2 -48 -3 -70 -26 -27
-26 -28 -32 -27 -122 l0 -94 -27 -6 c-31 -7 -94 -72 -110 -113 -18 -45 -49
-204 -49 -251 0 -82 60 -163 138 -186 13 -4 59 -35 101 -70 132 -106 355 -221
601 -311 58 -21 106 -38 107 -39 1 0 -9 -37 -23 -80 -44 -140 -68 -360 -44
-406 12 -21 50 -25 68 -7 8 8 12 46 12 105 0 103 18 209 56 322 36 106 32 122
-36 145 -288 99 -546 222 -655 309 l-29 24 30 16 c39 20 96 83 113 125 7 17
17 32 22 32 4 0 38 -35 75 -78 117 -133 218 -227 297 -276 186 -116 453 -193
692 -201 83 -2 118 -7 144 -21 71 -39 157 -111 189 -158 55 -82 43 -151 -44
-248 -47 -53 -51 -53 -44 5 13 100 -20 275 -65 344 -18 27 -47 30 -65 7 -11
-13 -9 -29 14 -97 37 -108 45 -221 22 -301 -21 -72 -14 -82 61 -92 51 -6 52
-6 102 41 71 66 128 155 137 211 13 90 -40 193 -142 274 l-56 45 28 7 c167 39
248 64 318 97 200 93 327 221 400 401 57 139 79 362 52 518 -47 271 -184 455
-462 618 -17 10 -16 12 10 30 38 24 115 24 183 -1 43 -15 54 -16 67 -6 39 33
9 71 -73 95 -101 30 -184 16 -250 -40 l-38 -33 -76 24 c-102 33 -249 62 -376
75 -100 10 -147 10 -241 3z m320 -98 c113 -16 251 -48 305 -71 l33 -13 -14
-64 c-21 -101 -42 -143 -96 -192 -139 -124 -419 -94 -506 54 -24 40 -27 57
-27 131 0 47 6 104 13 128 l13 42 87 0 c48 0 134 -7 192 -15z m-375 -12 c-5
-10 -10 -61 -13 -115 -5 -120 12 -178 73 -246 146 -163 439 -175 605 -26 48
44 105 155 115 223 4 29 12 51 19 51 30 0 149 -83 221 -155 91 -91 143 -174
183 -290 25 -75 27 -91 27 -255 0 -135 -4 -190 -18 -240 -73 -272 -284 -449
-622 -521 -119 -26 -359 -36 -462 -20 -367 58 -626 202 -771 429 -116 180
-133 412 -50 652 92 264 279 432 563 506 113 29 140 30 130 7z m-947 -591 c9
-6 12 -32 10 -90 -3 -76 -4 -81 -23 -76 -11 4 -21 8 -23 9 -8 7 -22 129 -17
146 7 20 31 25 53 11z m-5 -259 c59 -30 88 -147 61 -244 -32 -114 -102 -156
-205 -122 -45 15 -57 24 -72 55 -18 36 -18 42 -2 135 30 173 54 208 140 197
27 -4 63 -13 78 -21z"/>
<path d="M1262 1698 c-17 -17 -15 -64 4 -82 35 -35 94 -12 94 37 0 41 -15 57
-55 57 -17 0 -36 -5 -43 -12z"/>
<path d="M1273 1453 c-32 -77 5 -203 88 -296 102 -116 350 -233 551 -258 174
-23 335 26 444 136 44 43 55 61 52 82 -2 14 -11 31 -20 36 -13 9 -29 -1 -86
-55 -102 -96 -150 -113 -317 -113 -122 0 -136 3 -225 34 -278 97 -410 220
-410 381 0 69 -10 90 -43 90 -11 0 -24 -13 -34 -37z"/>
<path d="M2473 1354 c-15 -24 -15 -29 -2 -53 28 -50 109 -32 109 25 0 55 -76
75 -107 28z"/>
<path d="M564 2205 c-6 -15 50 -243 77 -311 11 -31 53 -30 57 1 1 11 -17 88
-40 170 -38 133 -46 150 -66 153 -13 2 -25 -3 -28 -13z"/>
<path d="M247 2053 c-19 -18 2 -50 104 -162 85 -93 116 -121 133 -119 43 6 24
44 -87 168 -99 109 -131 133 -150 113z"/>
<path d="M64 1755 c-4 -8 -4 -21 -1 -29 7 -18 313 -140 332 -132 8 3 15 16 15
29 0 21 -16 30 -155 85 -86 34 -162 62 -171 62 -8 0 -17 -7 -20 -15z"/>
</g>
</svg>
