<?xml version="1.0" standalone="no"?>
<!DOCTYPE svg PUBLIC "-//W3C//DTD SVG 20010904//EN"
 "http://www.w3.org/TR/2001/REC-SVG-20010904/DTD/svg10.dtd">
<svg version="1.0" xmlns="http://www.w3.org/2000/svg"
 width="436.000000pt" height="600.000000pt" viewBox="0 0 436.000000 600.000000"
 preserveAspectRatio="xMidYMid meet">

<g transform="translate(0.000000,600.000000) scale(0.100000,-0.100000)"
fill="#000000" stroke="none">
<path d="M348 5989 c-171 -25 -312 -170 -338 -346 -13 -93 -13 -5193 0 -5286
26 -180 167 -321 347 -347 92 -13 3554 -13 3646 0 181 26 321 166 347 347 6
43 10 825 9 2103 l0 2035 -747 753 -747 753 -1230 -2 c-676 -1 -1256 -5 -1287
-10z m3062 -2474 l0 -175 -1230 0 -1230 0 0 175 0 175 1230 0 1230 0 0 -175z
m0 -820 l0 -175 -1230 0 -1230 0 0 175 0 175 1230 0 1230 0 0 -175z m-680
-820 l0 -175 -890 0 -890 0 0 175 0 175 890 0 890 0 0 -175z"/>
</g>
</svg>
