<?xml version="1.0" standalone="no"?>
<!DOCTYPE svg PUBLIC "-//W3C//DTD SVG 20010904//EN"
 "http://www.w3.org/TR/2001/REC-SVG-20010904/DTD/svg10.dtd">
<svg version="1.0" xmlns="http://www.w3.org/2000/svg"
 width="256.000000pt" height="256.000000pt" viewBox="0 0 256.000000 256.000000"
 preserveAspectRatio="xMidYMid meet">

<g transform="translate(0.000000,256.000000) scale(0.100000,-0.100000)"
fill="#000000" stroke="none">
<path d="M1380 1920 c-289 -34 -497 -166 -604 -385 -44 -88 -75 -198 -83 -294
-8 -101 -24 -60 -22 55 3 96 -9 117 -72 134 -79 21 -114 -20 -106 -125 l4 -60
-41 -20 c-29 -14 -47 -33 -63 -65 -29 -57 -56 -193 -47 -243 7 -47 47 -95 94
-114 19 -8 53 -30 75 -48 111 -90 279 -180 480 -256 113 -42 108 -32 76 -153
-29 -109 -38 -254 -18 -281 13 -16 19 -18 34 -9 15 9 19 30 25 115 4 67 16
136 34 194 43 143 49 131 -98 186 -160 60 -296 124 -387 183 -74 48 -84 61
-52 71 26 8 79 69 87 100 3 14 10 25 15 25 4 0 47 -45 94 -100 101 -117 179
-179 290 -231 152 -71 299 -107 468 -115 90 -4 103 -7 145 -35 100 -68 152
-131 152 -187 0 -29 -43 -104 -78 -136 -19 -16 -19 -14 -24 86 -8 155 -53 257
-96 214 -13 -13 -12 -23 9 -88 23 -71 26 -112 17 -253 -3 -39 -2 -40 39 -49
49 -10 66 0 130 79 57 70 76 118 68 171 -8 54 -56 127 -111 167 -24 18 -43 35
-44 38 0 4 21 10 48 14 78 11 223 62 292 102 35 21 94 68 130 104 117 117 170
264 172 473 1 172 -37 292 -135 421 -50 66 -127 133 -199 174 -26 14 -48 30
-48 34 0 4 16 15 35 23 32 13 43 13 102 -2 59 -15 66 -15 81 0 51 51 -137 102
-221 60 -18 -9 -41 -25 -53 -35 -20 -19 -22 -19 -80 1 -130 46 -383 75 -514
60z m295 -80 c169 -27 239 -50 243 -78 7 -44 -28 -132 -69 -177 -77 -83 -217
-100 -334 -40 -83 42 -108 91 -103 195 6 107 15 120 86 120 31 0 111 -9 177
-20z m-320 -7 c-4 -10 -10 -48 -12 -84 -13 -161 77 -268 251 -300 181 -34 348
68 381 231 15 76 11 73 67 43 70 -38 176 -140 216 -206 18 -30 45 -88 59 -129
23 -64 26 -89 26 -198 0 -82 -6 -148 -17 -190 -61 -241 -250 -388 -561 -435
-179 -27 -330 -14 -509 42 -137 43 -231 98 -321 188 -133 132 -181 252 -172
425 10 185 68 321 187 440 87 87 178 138 305 169 102 25 109 25 100 4z m-756
-472 c10 -7 12 -23 6 -70 -11 -92 -39 -78 -47 24 -4 53 8 67 41 46z m12 -217
c67 -60 46 -239 -33 -280 -36 -18 -108 -10 -141 16 -19 16 -22 27 -20 83 2 87
27 171 58 195 21 17 32 18 72 11 25 -5 55 -16 64 -25z"/>
<path d="M1012 1358 c-28 -28 -7 -78 33 -78 12 0 26 5 33 12 7 7 12 21 12 33
0 12 -5 26 -12 33 -7 7 -21 12 -33 12 -12 0 -26 -5 -33 -12z"/>
<path d="M1020 1165 c-14 -37 -12 -73 6 -135 45 -151 329 -311 559 -313 134
-2 224 33 308 121 70 72 26 114 -47 45 -55 -52 -82 -68 -152 -89 -105 -30
-255 -4 -409 73 -143 71 -196 135 -204 247 -5 64 -8 71 -28 74 -17 3 -26 -3
-33 -23z"/>
<path d="M1986 1094 c-23 -23 -20 -51 8 -69 34 -23 66 -5 66 35 0 44 -44 64
-74 34z"/>
<path d="M450 1753 c0 -37 64 -245 78 -250 33 -13 33 16 0 138 -29 109 -36
124 -56 127 -16 3 -22 -2 -22 -15z"/>
<path d="M195 1630 c-7 -11 8 -31 107 -140 64 -71 98 -88 98 -49 0 26 -157
199 -181 199 -10 0 -21 -5 -24 -10z"/>
<path d="M50 1396 c0 -21 17 -31 144 -80 85 -34 122 -44 130 -36 20 20 -9 42
-119 86 -113 46 -155 54 -155 30z"/>
</g>
</svg>
